<?xml version="1.0" encoding="utf-8"?>
<!-- Generator: Adobe Illustrator 22.0.1, SVG Export Plug-In . SVG Version: 6.00 Build 0)  -->
<svg version="1.1" id="paysafe" xmlns="http://www.w3.org/2000/svg" xmlns:xlink="http://www.w3.org/1999/xlink" x="0px" y="0px"
	 viewBox="0 0 615.5 93.8" style="enable-background:new 0 0 615.5 93.8;" xml:space="preserve">
<style type="text/css">
	.st0{fill:#7887E6;}
	.st1{fill:#FF5073;}
	.st2{fill:#2D2341;}
</style>
<title>ps_cash_logo_full_color</title>
<circle class="st0" cx="378.7" cy="33.6" r="11.2"/>
<circle class="st1" cx="378.7" cy="68.5" r="11.2"/>
<path class="st2" d="M356.4,54.5v-4.3c0-16-11.2-27.8-26.5-27.8s-27,12.1-27,29c0,17.3,11.2,28.3,29,28.3l0,0c5,0,14.8-0.9,22.4-6.1
	L349.5,63c-4.6,2.7-9.7,4.1-15,4.2l0,0c-0.4,0-0.8,0-1.2,0H333c-0.4,0-0.7-0.1-1.1-0.1h-0.2c-0.3,0-0.6-0.1-0.9-0.2l-0.3-0.1
	l-0.9-0.2l-0.5-0.1l-0.6-0.2c-0.2-0.1-0.5-0.2-0.7-0.3l-0.2-0.1c-0.3-0.2-0.7-0.3-1-0.5l0,0c-0.7-0.4-1.3-0.9-1.9-1.5l0,0
	c-0.2-0.2-0.5-0.5-0.7-0.7l-0.2-0.3l-0.4-0.5c-0.2-0.3-0.4-0.5-0.5-0.8l0,0c-1.2-2.1-1.9-4.5-2.1-6.9h35.6L356.4,54.5z M329.9,34.4
	c4.7,0,8.5,3.8,9.1,11.1h-18.2C321.5,38.2,325.2,34.4,329.9,34.4z M180.6,39.2c0-2.6,2.6-4.2,6.9-4.2c4.5,0,9.2,1.6,12.7,3.1
	l4.8-11.3c-5.7-2.8-12-4.3-18.4-4.4c-12.8,0-23.1,5.8-23.1,17.4c0,18.2,25.7,14.9,25.7,23c0,3-3,4.5-8,4.5
	c-4.9-0.1-9.6-1.4-13.9-3.6l-5.5,11.1c6.5,3.3,13.6,5,20.9,5c12.4,0,23.2-6.4,23.2-18.2C206,43.4,180.6,46.4,180.6,39.2L180.6,39.2z
	 M81.5,22.4C73,22.3,64.6,24.6,57.3,29l4.8,9.8c3.1-1.4,9.7-3.9,15.2-3.9c4,0,7.5,1.4,7.5,5.6v3.6c-23.7-1.7-30.5,8.7-30.5,18.3
	c0,9.4,8,17.3,18.4,17.3c4.3-0.1,8.4-1.4,12-3.7v2.4H102V40.3C102,28,94.1,22.4,81.5,22.4z M85.5,66.4c-2,1.4-4.3,2.1-6.8,2.1
	c-4.3,0-7.2-2.5-7.2-6.4c0-4.5,3.6-8.9,13.9-7.2L85.5,66.4L85.5,66.4z M238.2,22.4c-8.5-0.1-16.9,2.2-24.1,6.5l4.7,9.8
	c3.1-1.4,9.6-3.9,15.2-3.9c4,0,7.5,1.4,7.5,5.6V44c-23.7-1.7-30.5,8.7-30.5,18.3c0,9.4,8,17.3,18.4,17.3c4.3-0.1,8.4-1.4,12-3.7v2.4
	h17.2v-38C258.7,28,250.9,22.4,238.2,22.4L238.2,22.4z M241.6,66.4c-2,1.4-4.3,2.1-6.8,2.1c-4.3,0-7.2-2.5-7.2-6.4
	c0-4.5,3.5-8.9,14-7.2V66.4z M272.8,21.5v2.2h-9.1v11.7h9.1v43h17v-43h11.8V23.7h-11.8v-2.9c0-4.8,1.9-8.3,7.2-8.3
	c1.7,0,3.4,0.3,5,0.8V1.1c-2.7-0.7-5.4-1.1-8.1-1.1C280,0,272.7,8.5,272.8,21.5L272.8,21.5z M145.9,23.7l-11.8,32.7l-13.5-32.7H103
	l23.1,52.1l-7.2,17.9h16.3l27.8-70H145.9z M28.4,4.4H0v74h17.6v-27h10.8c14.3,0,25-8.9,25-24C53.4,14.3,45.4,4.4,28.4,4.4z
	 M26.5,38.5h-8.9V17.3h8.9c6.3,0,9.9,4.4,9.9,10.7C36.4,34.8,32.4,38.5,26.5,38.5z"/>
<path class="st0" d="M486.6,22.4c-8.5-0.1-16.8,2.2-24.1,6.6l4.7,9.8c3.1-1.4,9.7-3.9,15.2-3.9c4,0,7.5,1.4,7.5,5.6v3.6
	c-23.7-1.7-30.5,8.7-30.5,18.3c0,9.4,8,17.3,18.4,17.3c4.3-0.1,8.4-1.4,12-3.7v2.4H507V40.3C507.1,28,499.3,22.4,486.6,22.4z
	 M490,66.4c-2,1.4-4.3,2.1-6.8,2.1c-4.3,0-7.2-2.5-7.2-6.4c0-4.5,3.5-8.9,14-7.2V66.4z"/>
<path class="st0" d="M519.5,63.6c4.3,2.3,9.1,3.5,13.9,3.7c5,0,8-1.5,8-4.5c0-8-25.7-4.7-25.7-23c0-11.6,10.3-17.4,23.1-17.4
	c6.4,0.1,12.6,1.6,18.3,4.4l-4.8,11.3c-3.4-1.5-8.2-3.1-12.7-3.1c-4.3,0-6.9,1.6-6.9,4.2c0,7.3,25.3,4.3,25.3,22.3
	c0,11.8-10.7,18.2-23.2,18.2c-7.3,0-14.4-1.7-20.9-5L519.5,63.6z"/>
<path class="st0" d="M598.3,78.4V41.8c0-4.1-1.8-6.8-5.9-6.8s-8.6,2.8-10.8,4.6v38.7h-17.2V4.5h17.2v25.1c4.4-3.5,10.5-7.2,17.5-7.2
	s16.4,3.7,16.4,18.6v37.4H598.3z"/>
<path class="st0" d="M438.5,59.1c-1.4,5-4.5,8.2-9.7,8.2c-7.6,0-10.6-7.1-10.6-16.1c0-9.4,3.3-16.2,10.6-16.2c5,0,8.1,3.1,9.6,8.1
	h16.5c-3.1-13.2-14-20.7-26.1-20.7C412,22.4,400,33.1,400,51.1s12,28.6,28.9,28.6c12.2,0,23-7.5,26.1-20.7L438.5,59.1z"/>
</svg>
